<?xml version="1.0" encoding="UTF-8"?>
<svg id="Layer_1" data-name="Layer 1" xmlns="http://www.w3.org/2000/svg" version="1.1" viewBox="0 0 694 436.26">
  <defs>
    <style>
      .cls-1 {
        fill: none;
        stroke: #144e66;
        stroke-miterlimit: 10;
        stroke-width: 5px;
      }

      .cls-2 {
        fill: #201d1d;
      }

      .cls-2, .cls-3 {
        stroke-width: 0px;
      }

      .cls-3 {
        fill: #144e66;
      }
    </style>
  </defs>
  <g>
    <path class="cls-3" d="M234.82,208.76l1.22,4.19-30.4-105.82c-5.73-19.15-13.17-38.35-23.49-41.7h55.46c-11.38,3.66-9.88,28.27-4.16,48.26l72.22,250.68,73.41-254.27-.13.37c5.07-17.56,9.27-41.37-2.1-45.03h34.12c-11.02,3.56-22.04,23.97-28.08,44.34l-75.37,261.02h-3.72l.04-.1c-19.55-.96-23.62-10.29-30.44-27.68l-36.7-127.78-44.93,155.57h-3.72l.04-.1c-19.6-.95-23.62-10.29-30.44-27.68L89.2,104.85c-5.64-18.4-12.9-36.22-22.83-39.41h55.51c-11.38,3.66-9.93,28.27-4.16,48.26l72.22,250.68,44.88-155.62Z"/>
    <path class="cls-2" d="M453.49,208.76l1.22,4.19-30.4-105.82c-5.73-19.15-13.17-38.35-23.49-41.7h55.46c-11.38,3.66-9.88,28.27-4.16,48.26l72.22,250.68,73.4-254.28-.13.37c5.08-17.56,9.28-41.37-2.1-45.03h34.12c-11.03,3.56-22.04,23.98-28.08,44.34l-75.37,261.02h-3.72l.04-.1c-19.55-.96-23.62-10.29-30.44-27.68l-36.7-127.78-44.93,155.58h-3.72l.04-.1c-19.6-.95-23.62-10.29-30.44-27.68l-68.45-238.18c-5.64-18.41-12.9-36.23-22.83-39.41h55.51c-11.38,3.66-9.93,28.27-4.16,48.26l72.22,250.68,44.88-155.62Z"/>
  </g>
  <rect class="cls-1" y="0" width="694" height="436.26" rx="12" ry="12"/>
</svg>